<svg xmlns="http://www.w3.org/2000/svg" id="Layer_2" viewBox="0 0 204.3 175"><defs><style>.cls-1{fill:#628b0b;}.cls-1,.cls-2{stroke-width:0px;}.cls-2{fill:#0e387a;}</style></defs><g id="Layer_1-2"><polyline class="cls-2" points="204.3 0 1.39 0 1.39 52.12 9.95 52.12 9.95 8.56 195.74 8.56"></polyline><path class="cls-2" d="m1.43,53.1v-30.76h8.31v24.05h11.85v6.71H1.43Z"></path><path class="cls-2" d="m46.5,53.1h-18.26v-30.76h18.26v6.67h-9.95v4.84h9.22v6.67h-9.22v5.81h9.95v6.78Z"></path><path class="cls-2" d="m81.32,53.1h-9.62l-6-9.61-5.93,9.61h-9.41l10.2-15.74-9.59-15.02h9.22l5.55,9.51,5.34-9.51h9.49l-9.74,15.68,10.48,15.09Z"></path><path class="cls-2" d="m86.49,53.1v-30.76h8.35v30.76h-8.35Z"></path><path class="cls-2" d="m27.54,81.8c0,5.13-1.41,9.09-4.24,11.87-2.83,2.78-6.8,4.17-11.92,4.17H1.43v-30.76h10.65c4.94,0,8.75,1.26,11.44,3.79s4.03,6.17,4.03,10.94Zm-8.63.29c0-2.82-.56-4.91-1.67-6.27-1.11-1.36-2.81-2.04-5.08-2.04h-2.42v17.23h1.85c2.53,0,4.38-.73,5.55-2.2s1.77-3.71,1.77-6.72Z"></path><path class="cls-2" d="m34.78,97.84v-30.76h8.35v30.76h-8.35Z"></path><path class="cls-2" d="m63.86,79.83h13.28v16.58c-3.61,1.23-7.57,1.85-11.89,1.85-4.74,0-8.41-1.37-10.99-4.12-2.59-2.75-3.88-6.67-3.88-11.76s1.42-8.83,4.25-11.59c2.83-2.76,6.8-4.14,11.91-4.14,1.94,0,3.76.18,5.48.55,1.72.37,3.22.83,4.49,1.39l-2.63,6.52c-2.22-1.09-4.65-1.64-7.3-1.64-2.43,0-4.3.79-5.63,2.37-1.33,1.58-1.99,3.83-1.99,6.76s.6,5.07,1.8,6.58c1.2,1.51,2.93,2.26,5.19,2.26,1.23,0,2.37-.12,3.41-.36v-4.82h-5.49v-6.42Z"></path><path class="cls-2" d="m85.13,97.84v-30.76h8.35v30.76h-8.35Z"></path><path class="cls-2" d="m115.42,97.84h-8.31v-23.97h-7.51v-6.8h23.31v6.8h-7.49v23.97Z"></path><path class="cls-2" d="m144.9,97.84l-1.52-5.76h-9.99l-1.56,5.76h-9.13l10.04-30.89h11.09l10.16,30.89h-9.09Zm-3.24-12.58l-1.33-5.05c-.31-1.12-.68-2.57-1.13-4.35-.44-1.78-.73-3.06-.87-3.83-.13.72-.38,1.89-.75,3.54-.37,1.64-1.2,4.87-2.47,9.7h6.54Z"></path><path class="cls-2" d="m159.04,97.84v-30.76h8.31v24.05h11.85v6.71h-20.16Z"></path><path class="cls-2" d="m21.55,133.23c0,1.91-.48,3.6-1.45,5.08-.97,1.48-2.36,2.63-4.19,3.45-1.82.82-3.96,1.23-6.42,1.23-2.05,0-3.77-.14-5.16-.43-1.39-.29-2.83-.79-4.33-1.5v-7.41c1.58.81,3.23,1.45,4.94,1.9,1.71.46,3.28.68,4.71.68,1.23,0,2.14-.21,2.71-.64s.86-.98.86-1.65c0-.42-.12-.79-.35-1.1s-.6-.63-1.12-.96c-.51-.32-1.88-.98-4.09-1.98-2.01-.91-3.51-1.79-4.51-2.65s-1.75-1.84-2.23-2.95c-.48-1.11-.73-2.42-.73-3.93,0-2.83,1.03-5.04,3.09-6.63,2.06-1.58,4.89-2.38,8.5-2.38,3.18,0,6.43.74,9.74,2.21l-2.55,6.42c-2.88-1.32-5.36-1.98-7.45-1.98-1.08,0-1.87.19-2.36.57s-.74.85-.74,1.41c0,.6.31,1.14.94,1.62.62.48,2.32,1.35,5.08,2.61,2.65,1.19,4.49,2.47,5.52,3.84,1.03,1.37,1.55,3.09,1.55,5.17Z"></path><path class="cls-2" d="m41.6,142.58h-8.31v-23.97h-7.51v-6.8h23.31v6.8h-7.49v23.97Z"></path><path class="cls-2" d="m81.36,111.81v18.52c0,4.03-1.14,7.14-3.42,9.35s-5.57,3.31-9.86,3.31-7.42-1.07-9.67-3.22c-2.25-2.15-3.38-5.23-3.38-9.26v-18.71h8.35v18.05c0,2.17.41,3.75,1.22,4.73s2.01,1.47,3.6,1.47c1.7,0,2.93-.49,3.69-1.46.76-.97,1.15-2.57,1.15-4.79v-18.01h8.31Z"></path><path class="cls-2" d="m115.66,126.54c0,5.13-1.41,9.09-4.24,11.87-2.83,2.78-6.8,4.17-11.92,4.17h-9.95v-30.76h10.65c4.94,0,8.75,1.26,11.44,3.79s4.03,6.17,4.03,10.94Zm-8.63.29c0-2.82-.56-4.91-1.67-6.27-1.11-1.36-2.81-2.04-5.08-2.04h-2.42v17.23h1.85c2.53,0,4.38-.73,5.55-2.2s1.77-3.71,1.77-6.72Z"></path><path class="cls-2" d="m122.89,142.58v-30.76h8.35v30.76h-8.35Z"></path><path class="cls-2" d="m168.4,127.15c0,5.18-1.27,9.11-3.81,11.8-2.54,2.69-6.26,4.04-11.15,4.04s-8.53-1.35-11.1-4.06c-2.57-2.71-3.86-6.65-3.86-11.83s1.28-9.03,3.84-11.73c2.56-2.7,6.28-4.05,11.16-4.05s8.61,1.34,11.13,4.02c2.53,2.68,3.79,6.61,3.79,11.8Zm-21.17,0c0,5.95,2.07,8.92,6.21,8.92,2.1,0,3.66-.72,4.68-2.17,1.02-1.44,1.53-3.7,1.53-6.75s-.52-5.34-1.55-6.81c-1.03-1.47-2.57-2.2-4.62-2.2-4.17,0-6.25,3-6.25,9Z"></path><rect class="cls-1" x="174.68" y="134.3" width="7.24" height="7.24" rx=".64" ry=".64"></rect><polyline class="cls-1" points="195.74 8.56 195.74 166.44 9.95 166.44 9.95 155.37 1.39 155.37 1.39 175 204.3 175 204.3 0"></polyline></g></svg>