<svg xmlns="http://www.w3.org/2000/svg" xmlns:xlink="http://www.w3.org/1999/xlink" id="Layer_1" x="0px" y="0px" viewBox="0 0 168.5 116.7" style="enable-background:new 0 0 168.5 116.7;" xml:space="preserve"><style type="text/css">	.st0{fill:url(#SVGID_1_);}	.st1{fill:url(#SVGID_2_);}	.st2{fill:#333333;}</style><linearGradient id="SVGID_1_" gradientUnits="userSpaceOnUse" x1="0" y1="59.5" x2="43.4" y2="59.5">	<stop offset="0" style="stop-color:#2D7FFF"></stop>	<stop offset="0.9944" style="stop-color:#0E387A"></stop>	<stop offset="1" style="stop-color:#000000"></stop></linearGradient><path class="st0" d="M0,2.3v24.9h15.5v89.5h27.9V2.3H0z"></path><linearGradient id="SVGID_2_" gradientUnits="userSpaceOnUse" x1="61.8" y1="58.15" x2="149.8" y2="58.15">	<stop offset="0" style="stop-color:#2D7FFF"></stop>	<stop offset="0.9944" style="stop-color:#0E387A"></stop>	<stop offset="1" style="stop-color:#000000"></stop></linearGradient><path class="st1" d="M148.7,41.3h-8.3V27.7h-13.3V12.1h9.7C129.8,4,119.4,0,105.8,0C90.3,0,79.1,5.2,72.2,15.5 C65.2,25.9,61.8,40,61.8,58s3.5,32.4,10.4,42.8c7,10.3,18.2,15.5,33.6,15.5s26.7-5.2,33.6-15.5c6.9-10.3,10.4-24.6,10.4-42.8 C149.8,52,149.5,46.4,148.7,41.3L148.7,41.3z M122.3,75.6c-0.8,4.7-2.5,8.4-5.1,11.3s-6.4,4.3-11.4,4.3s-8.8-1.4-11.4-4.3 s-4.3-6.6-5.1-11.3C88.5,71,88,65.1,88,58c0-10.6,1.2-18.7,3.5-24.4s7-8.5,14.3-8.5s12,2.9,14.3,8.5c2.3,5.7,3.5,13.8,3.5,24.4 C123.5,65.1,123.1,70.9,122.3,75.6z M129.1,25.7h13.3v13.6h6c-1.6-9.4-4.6-17.4-8.9-23.8c-0.3-0.5-0.7-1-1-1.4h-9.3v11.6H129.1z"></path><path class="st2" d="M154.7,14.1V0.4h-12.4v13.7H129v11.7h13.3v13.6h12.4V25.7H168V14.1H154.7z"></path><path class="st2" d="M168,39.4l-3.6,7v3.5h-2.6v-3.5l-3.6-7h2.9l2,4.4l2-4.4H168L168,39.4z"></path><path class="st2" d="M162.5,58v2.1h3.4v2h-3.4v2.3h3.9v2.1h-6.5V56h6.5v2.1L162.5,58L162.5,58z"></path><path class="st2" d="M165.1,81.2h-3.9l-0.6,1.9h-2.7l3.8-10.5h3l3.8,10.5h-2.7L165.1,81.2L165.1,81.2z M164.4,79.2l-1.3-3.9 l-1.3,3.9H164.4z"></path><path class="st2" d="M164.5,99.6l-2.2-4h-0.6v4h-2.6V89.1h4.3c0.8,0,1.5,0.1,2.1,0.4s1,0.7,1.3,1.2s0.4,1.1,0.4,1.7 c0,0.7-0.2,1.3-0.6,1.9c-0.4,0.5-1,0.9-1.7,1.2l2.4,4.2L164.5,99.6L164.5,99.6L164.5,99.6z M161.7,93.8h1.6c0.5,0,0.8-0.1,1.1-0.3 c0.2-0.2,0.4-0.6,0.4-1s-0.1-0.7-0.4-0.9c-0.2-0.2-0.6-0.3-1.1-0.3h-1.6C161.7,91.3,161.7,93.8,161.7,93.8z"></path><path class="st2" d="M161.2,116c-0.6-0.3-1.1-0.6-1.5-1.1s-0.6-1.1-0.6-1.8h2.7c0,0.4,0.2,0.7,0.4,0.9c0.2,0.2,0.5,0.3,0.9,0.3 s0.7-0.1,0.9-0.3s0.3-0.4,0.3-0.7s-0.1-0.5-0.3-0.6c-0.2-0.2-0.4-0.3-0.6-0.4c-0.2-0.1-0.6-0.2-1.1-0.4c-0.7-0.2-1.2-0.4-1.7-0.6 c-0.4-0.2-0.8-0.5-1.1-0.9s-0.5-0.9-0.5-1.6c0-1,0.4-1.7,1.1-2.3c0.7-0.6,1.6-0.8,2.8-0.8s2.1,0.3,2.8,0.8c0.7,0.6,1.1,1.3,1.1,2.3 H164c0-0.3-0.1-0.6-0.4-0.8s-0.5-0.3-0.9-0.3c-0.3,0-0.6,0.1-0.8,0.2c-0.2,0.2-0.3,0.4-0.3,0.7s0.2,0.6,0.5,0.8 c0.3,0.2,0.8,0.4,1.5,0.6s1.2,0.4,1.7,0.7c0.4,0.2,0.8,0.5,1.1,0.9s0.5,0.9,0.5,1.5s-0.2,1.1-0.5,1.6s-0.7,0.9-1.3,1.2 c-0.6,0.3-1.3,0.4-2.1,0.4C162.5,116.4,161.8,116.3,161.2,116L161.2,116z"></path></svg>